<svg width="68.032" height="68.032" viewBox="0 0 0.709 0.709" xmlns="http://www.w3.org/2000/svg"><path d="M.309.247.299.26.298.274A.04.04 0 0 0 .32.312l.015.004.01-.001.022-.002a.1.1 0 0 1 .046.01.1.1 0 0 1 .035.025Q.48.382.481.427a.1.1 0 0 1-.008.042.1.1 0 0 1-.026.038L.313.64a.04.04 0 0 0 .029.068A.04.04 0 0 0 .37.697L.504.563a.193.193 0 0 0-.034-.3L.431.237.537.132a.037.037 0 0 1 .052 0 .037.037 0 0 1 0 .052L.545.227a.3.3 0 0 1 .058.074.3.3 0 0 1 .031.126.27.27 0 0 1-.078.188L.509.661A.028.028 0 0 0 .53.71h.126A.056.056 0 0 0 .71.656V.053A.054.054 0 0 0 .655 0h-.1z" fill="#2c3e50"/><path d="M.053.709h.1L.407.455.417.44.418.427A.04.04 0 0 0 .395.389L.379.386H.371L.348.39A.1.1 0 0 1 .302.38.1.1 0 0 1 .266.354a.12.12 0 0 1-.023-.12.1.1 0 0 1 .025-.038L.395.068A.04.04 0 1 0 .338.012L.212.138A.193.193 0 0 0 .246.44l.038.025L.18.57A.037.037 0 0 1 .127.519L.171.474A.3.3 0 0 1 .113.401.27.27 0 0 1 .16.086L.199.048A.028.028 0 0 0 .179 0H.053A.054.054 0 0 0 0 .053v.603c0 .029.024.053.053.053" fill="#3498db"/></svg>